<svg xmlns="http://www.w3.org/2000/svg" width="1200" height="650" viewBox="0 0 1200 650" fill="none">
  <defs>
    <linearGradient id="bg" x1="0" y1="0" x2="1200" y2="650" gradientUnits="userSpaceOnUse">
      <stop stop-color="#0B1020"/>
      <stop offset="0.55" stop-color="#0A0D18"/>
      <stop offset="1" stop-color="#060812"/>
    </linearGradient>
    <linearGradient id="g" x1="250" y1="120" x2="980" y2="520" gradientUnits="userSpaceOnUse">
      <stop stop-color="#7C3AED"/>
      <stop offset="1" stop-color="#22D3EE"/>
    </linearGradient>
    <filter id="blur" x="-40" y="-40" width="1280" height="770" filterUnits="userSpaceOnUse">
      <feGaussianBlur stdDeviation="18"/>
    </filter>
  </defs>
  <rect width="1200" height="650" rx="28" fill="url(#bg)"/>
  <g opacity="0.85" filter="url(#blur)">
    <circle cx="340" cy="180" r="140" fill="#7C3AED"/>
    <circle cx="880" cy="240" r="160" fill="#22D3EE"/>
  </g>
  <rect x="140" y="120" width="920" height="470" rx="26" fill="rgba(255,255,255,0.06)" stroke="rgba(255,255,255,0.12)"/>
  <path d="M240 230h220M240 275h340M240 320h280" stroke="rgba(234,240,255,0.72)" stroke-width="12" stroke-linecap="round"/>
  <rect x="740" y="210" width="240" height="210" rx="18" fill="rgba(255,255,255,0.07)" stroke="rgba(255,255,255,0.12)"/>
  <path d="M790 300c24-52 76-52 100 0" stroke="url(#g)" stroke-width="12" stroke-linecap="round"/>
  <path d="M790 345c24-52 76-52 100 0" stroke="rgba(234,240,255,0.75)" stroke-width="12" stroke-linecap="round"/>
  <rect x="220" y="405" width="470" height="140" rx="22" fill="rgba(255,255,255,0.06)" stroke="rgba(255,255,255,0.12)"/>
  <path d="M260 450h250M260 495h310" stroke="rgba(234,240,255,0.65)" stroke-width="12" stroke-linecap="round"/>
  <circle cx="1000" cy="520" r="12" fill="#22c55e"/>
  <circle cx="1038" cy="520" r="12" fill="#f59e0b"/>
  <circle cx="1076" cy="520" r="12" fill="#ef4444"/>
</svg>

